<svg width="18" height="16" viewBox="0 0 18 16" fill="none" xmlns="http://www.w3.org/2000/svg">
<path d="M15 3H10L7 0H3C1 0 0 1 0 3V13C0 15 1 16 3 16H15C17 16 18 15 18 13V6C18 4 17 3 15 3ZM6.53003 11.47C6.82303 11.763 6.82303 12.238 6.53003 12.531C6.38403 12.677 6.192 12.751 6 12.751C5.808 12.751 5.61597 12.678 5.46997 12.531L3.46997 10.531C3.17697 10.238 3.17697 9.763 3.46997 9.47L5.46997 7.47C5.76297 7.177 6.23801 7.177 6.53101 7.47C6.82401 7.763 6.82401 8.23801 6.53101 8.53101L5.06104 10.001L6.53003 11.47ZM11.53 10.53L9.53003 12.53C9.38403 12.676 9.192 12.75 9 12.75C8.808 12.75 8.61597 12.677 8.46997 12.53C8.17697 12.237 8.17697 11.762 8.46997 11.469L9.93994 9.99899L8.46997 8.52899C8.17697 8.23599 8.17697 7.76099 8.46997 7.46799C8.76297 7.17499 9.23801 7.17499 9.53101 7.46799L11.531 9.46799C11.823 9.76199 11.823 10.238 11.53 10.53Z" fill="#000002"/>
</svg>
