<svg width="24" height="25" viewBox="0 0 24 25" fill="none" xmlns="http://www.w3.org/2000/svg">
<path fill-rule="evenodd" clip-rule="evenodd" d="M12 6.75C8.82436 6.75 6.25 9.32436 6.25 12.5C6.25 13.0523 5.80228 13.5 5.25 13.5C4.69772 13.5 4.25 13.0523 4.25 12.5C4.25 8.21979 7.71979 4.75 12 4.75C16.2802 4.75 19.75 8.21979 19.75 12.5C19.75 16.7802 16.2802 20.25 12 20.25C11.4477 20.25 11 19.8023 11 19.25C11 18.6977 11.4477 18.25 12 18.25C15.1756 18.25 17.75 15.6756 17.75 12.5C17.75 9.32436 15.1756 6.75 12 6.75Z" fill="#1C1C1C"/>
<path fill-rule="evenodd" clip-rule="evenodd" d="M13.9745 15.6751C14.4587 15.9406 14.636 16.5484 14.3705 17.0327L13.3037 18.9781L15.2491 20.0448C15.7334 20.3104 15.9107 20.9182 15.6451 21.4025C15.3796 21.8867 14.7718 22.064 14.2875 21.7985L11.4653 20.2509C10.981 19.9854 10.8037 19.3775 11.0693 18.8933L12.6168 16.0711C12.8824 15.5868 13.4902 15.4095 13.9745 15.6751Z" fill="#1C1C1C"/>
</svg>
